<svg xmlns="http://www.w3.org/2000/svg" version="1.0" width="512" height="512">
<rect width="512" height="512" x="0" y="0" style="fill:#c5eff7;stroke-width:0;" />
<path d="M 193.20755,-0.96603774 L 189.3434,30.913208 L 180.64906,36.709434 L 164.83496,34.783233 L 165.19245,46.369811 L 140.82235,73.271507 L 140.47977,95.166682 L 156.49811,88.875472 L 169.0566,112.06038 L 167.12453,125.58491 L 177.99613,142.24685 L 165.19245,158.43019 L 174.01085,195.62704 L 193.45566,200.69361 L 190.55462,218.19753 L 159.39623,247.30566 L 88.875472,234.74717 L 39.607547,251.16981 L 35.743396,278.21887 L -1.9320755,283.04906 L -2.8981132,-1.9320755 L 193.20755,-0.96603774 z" style="fill:#4183d7;stroke:#ffffff;stroke-width:1px;" />
<path d="M 373.8566,-2.8981132 L 379.65283,25.116981 L 375.78868,36.709434 L 364.19623,27.049057 L 347.77358,25.116981 L 323.62264,34.777358 L 293.67547,30.913208 L 289.81132,45.403774 L 271.4566,31.879245 L 260.83019,34.777358 L 225.08679,18.354717 L 216.39245,31.879245 L 189.10189,30.913208 L 193.20755,-1.9320755 L 373.8566,-2.8981132 z" style="fill:#e26a6a;stroke:#ffffff;stroke-width:1px;" />
<path d="M 512.96604,23.184906 L 491.71321,23.184906 L 498.47547,37.675472 L 488.81509,68.588679 L 480.12075,76.316981 L 448.24151,78.249057 L 433.75094,88.875472 L 403.80377,85.011321 L 356.46792,71.486792 L 349.70566,53.132075 L 317.82642,61.826415 L 311.06415,73.418868 L 290.77736,65.690566 L 275.32075,64.724528 L 259.86415,56.030189 L 263.7283,42.50566 L 261.79623,34.777358 L 271.33254,32.000367 L 290.77736,45.403774 L 293.67547,30.913208 L 322.6566,34.777358 L 348.73962,25.116981 L 364.19623,27.049057 L 375.78574,37.066925 L 378.68679,25.116981 L 374.82264,-1.9320755 L 514.89811,-1.9320755 L 512.96604,23.184906 z" style="fill:#2ecc71;stroke:#ffffff;stroke-width:1px;" />
<path d="M 513.2024,92.26101 L 499.44151,85.011321 L 492.79743,68.833861 L 489.54182,66.898848 L 497.86986,36.833493 L 491.71321,23.184906 L 512.96604,23.184906 L 513.2024,92.26101 z" style="fill:#95a5a6;stroke:#ffffff;stroke-width:1px;" />
<path d="M 500.40755,86.09848 L 492.67925,68.588679 L 489.78113,66.656604 L 479.15472,77.283019 L 449.20755,78.249057 L 432.78491,88.875472 L 403.68265,85.129505 L 401.98989,110.37054 L 408.26472,129.80948 L 403.80377,136.21132 L 427.35205,137.42254 L 433.87501,127.63517 L 445.58564,138.5097 L 458.99199,138.38858 L 459.8369,123.53171 L 472.63469,115.92159 L 473.60073,97.566874 L 500.40755,86.09848 z" style="fill:#e26a6a;stroke:#ffffff;stroke-width:1px;" />
<path d="M 512.96604,246.33962 L 480.12075,228.95094 L 453.0717,194.17358 L 460.8,191.27547 L 446.30943,171.95472 L 443.41132,154.56604 L 419.26038,145.8717 L 410.56604,166.15849 L 402.83774,152.63396 L 401.39015,136.21132 L 427.47317,137.17736 L 433.75094,127.51698 L 445.3434,138.1434 L 458.86792,138.1434 L 459.83396,123.65283 L 472.39245,115.92453 L 473.35849,97.569811 L 500.40755,85.977358 L 512.96604,91.773585 L 512.96604,148.76981 L 499.44151,147.80377 L 491.71321,157.46415 L 478.18868,147.80377 L 471.42642,168.09057 L 492.67925,192.24151 L 493.64528,200.93585 L 513.93208,223.15472 L 512.96604,246.33962 z" style="fill:#f1c40f;stroke:#ffffff;stroke-width:1px;" />
<path d="M 513.44465,222.6761 L 492.67925,199.96981 L 492.07364,192.12626 L 471.42642,168.09057 L 478.30687,147.68559 L 492.07364,157.45828 L 499.44151,147.80377 L 513.08423,148.40644 L 513.44465,222.6761 z" style="fill:#e74c3c;stroke:#ffffff;stroke-width:1px;" />
<path d="M -1.9320755,284.01509 L 36.709434,279.18491 L 37.675472,306.23396 L 7.7283019,335.21509 L -1.9320755,336.18113 L -1.9320755,284.01509 z" style="fill:#95a5a6;stroke:#ffffff;stroke-width:1px;" />
<path d="M 255.03396,255.03396 L 259.86415,291.7434 L 255.03396,308.16604 L 250.20377,327.48679 L 234.74717,319.75849 L 230.88302,296.57358 L 225.08679,288.84528 L 233.78113,269.52453 L 255.03396,255.03396 z" id="path3170" style="fill:#4183d7;stroke:#ffffff;stroke-width:1px;" />
<path d="M 214.46038,347.77358 L 232.81509,351.63774 L 249.23774,337.14717 L 268.55849,368.06038 L 264.69434,426.02264 L 249.23774,424.09057 L 234.74717,437.61509 L 223.15472,427.95472 L 222.18868,372.89057 L 214.46038,347.77358 z" style="fill:#e67e22;stroke:#ffffff;stroke-width:1px;" />
<path d="M 364.19623,473.35849 L 359.36604,494.61132 L 400.90566,516.83019 L 455.96981,516.83019 L 451.13962,503.30566 L 462.73208,469.49434 L 402.83774,478.18868 L 364.19623,473.35849 z" style="fill:#e67e22;stroke:#ffffff;stroke-width:1px;" />
<path d="M 190.43055,218.20341 L 203.83396,218.32453 L 221.22264,194.17358 L 239.57736,189.3434 L 268.55849,204.8 L 284.01509,209.63019 L 293.67547,256 L 354.53585,317.82642 L 376.75472,335.21509 L 399.93962,337.14717 L 417.3283,355.50189 L 439.54717,363.23019 L 446.30943,382.55094 L 462.73208,388.34717 L 485.91698,437.61509 L 479.15472,445.3434 L 472.39245,465.63019 L 472.39245,481.08679 L 483.01887,478.18868 L 504.2717,440.51321 L 515.86415,439.54717 L 515.86415,411.53208 L 494.61132,397.04151 L 514.89811,365.16226 L 514.89811,341.97736 L 477.22264,319.75849 L 485.91698,311.06415 L 475.29057,301.40377 L 453.0717,301.40377 L 411.53208,265.66038 L 395.10943,225.08679 L 363.23019,203.83396 L 351.63774,178.71698 L 358.4,162.29434 L 355.50189,140.07547 L 384.48302,120.75472 L 408.14947,129.57018 L 401.8717,110.1283 L 403.93077,85.256502 L 357.43396,70.520755 L 349.46342,53.371382 L 316.86038,61.826415 L 311.06415,73.418868 L 291.0196,66.050995 L 289.81132,85.011321 L 274.35472,95.637736 L 249.23774,87.909434 L 242.47547,108.19623 L 224.12075,110.1283 L 218.32453,103.36604 L 199.00377,118.82264 L 182.58113,120.75472 L 168.09057,110.1283 L 166.15849,125.58491 L 177.75094,142.00755 L 163.26038,159.39623 L 173.88679,196.10566 L 193.20755,200.93585 L 190.43055,218.20341 z" style="fill:#e67e22;stroke:#ffffff;stroke-width:1px;" />
<path d="M 164.84688,34.900915 L 165.08912,46.770859 L 140.6225,73.417673 L 140.25914,95.340733 L 156.48947,88.800152 L 168.23829,110.48097 L 182.53067,120.77633 L 199.12437,118.71726 L 218.38275,103.21366 L 224.1966,110.1176 L 242.60713,108.05853 L 249.02659,87.710055 L 274.34106,95.704099 L 289.72354,84.924252 L 291.177,65.786995 L 275.18891,64.696898 L 259.56419,55.976122 L 263.56121,42.652715 L 261.74438,34.779793 L 224.92333,18.186096 L 216.32368,31.872868 L 189.07125,30.903893 L 180.59272,36.717743 L 164.84688,34.900915 z" style="fill:#f1c40f;stroke:#ffffff;stroke-width:1px;" />
</svg>