<?xml version="1.0" encoding="UTF-8" standalone="no"?>
<svg xmlns:svg="http://www.w3.org/2000/svg" xmlns="http://www.w3.org/2000/svg" version="1.0" width="314" height="418">
<rect width="314" height="418" x="0" y="0" style="fill:#c5eff7;stroke:none" />
<path d="M 80.377362,289.58491 L 72.679242,304.07547 L 69.509432,302.9434 L 69.735852,308.15094 L 53.433962,323.32075 L 40.754722,326.03774 L 36.226412,334.64151 L 38.716982,348.22641 L 40.301892,355.69811 L 35.320752,369.73585 L 31.018872,371.54717 L 30.339622,381.50943 L 32.603772,386.26415 L 34.641512,393.96226 L 34.641512,401.66038 L 44.830192,409.13208 L 49.584902,409.35849 L 61.358492,404.15094 L 84.000002,330.11321 L 83.547172,322.41509 L 84.452832,317.88679 L 88.301892,319.69811 L 87.849062,308.15094 L 85.132072,298.64151 L 80.377362,289.58491 z" style="fill:#e67e22;stroke:#ffffff" />
<path d="M 316.98113,110.03774 L 312.41712,107.32075 L 307.01887,85.13207 L 299.32075,74.71698 L 297.0566,57.96226 L 287.09434,45.28302 L 283.4717,24.90566 L 280.16247,-0.38369086 L 317.81765,-0.017860754 L 316.98113,110.03774 z" style="fill:#e74c3c;stroke:#ffffff" />
<path d="M 161.03356,-0.48798059 L 158.94339,5.4339598 L 152.60377,6.3396198 L 152.15094,18.11321 L 141.73585,22.18868 L 139.4717,28.98113 L 131.32075,30.33962 L 126.79245,36.67924 L 110.66342,39.98848 L 105.64999,17.484678 L 128.70748,8.986319 L 134.33385,-0.67981092 L 161.03356,-0.48798059 z" style="fill:#e74c3c;stroke:#ffffff" />
<path d="M -1.5497688,-0.83709159 L 134.37014,-0.59282103 L 128.60377,9.2830198 L 105.73585,17.88679 L 78.113212,21.0566 L 62.943392,36 L 57.735852,33.28302 L 31.924532,33.0566 L 28.981132,30.79245 L 26.037732,40.75472 L 9.9622618,15.62264 L -1.5849052,6.1132098 L -1.5497688,-0.83709159 z" style="fill:#e67e22;stroke:#ffffff" />
<path d="M 105.99911,18.007218 L 110.94339,39.84906 L 105.50943,43.01887 L 105.28302,48.45283 L 82.415092,56.37736 L 76.754722,63.62264 L 51.169812,67.69811 L 45.283022,73.35849 L 30.792452,75.62264 L 29.886792,64.5283 L 24.452832,54.33962 L 26.943392,51.84906 L 25.132072,43.4717 L 29.207552,31.295998 L 32.045521,33.089458 L 57.822842,33.385588 L 62.995822,35.998288 L 78.252061,21.055459 L 105.99911,18.007218 z" style="fill:#f1c40f;stroke:#ffffff" />
<path d="M 27.169812,86.9434 L 20.68963,96.070281 L 33.509432,110.4237 L 67.506272,117.94669 L 77.818794,104.22122 L 78.515895,88.6153 L 37.132072,95.09434 L 27.169812,86.9434 z" style="fill:#e26a6a;stroke:#ffffff" />
<path d="M 77.886792,88.75472 L 95.094342,84.22641 L 91.471702,102.33962 L 67.018872,150.33962 L 56.150942,158.49057 L 33.509432,176.60377 L 15.396222,196.5283 L 10.867922,192 L 9.9622618,160.30189 L 19.924532,148.5283 L 26.264152,148.5283 L 30.792452,143.09434 L 44.377362,144 L 67.924532,117.73585 L 77.886792,104.15094 L 77.886792,88.75472 z" style="fill:#e26a6a;stroke:#ffffff" />
<path d="M 67.299985,117.87527 L 33.509432,110.49057 L 20.830192,96 L 23.338103,92.111921 L 12.786482,89.65527 L 19.864402,75.73035 L 8.5132528,63.22969 L -0.60361816,59.93369 L 0.088152062,152.42748 L 7.0355829,149.4351 L 15.744202,153.12802 L 19.750542,148.56401 L 26.544134,148.39002 L 30.984302,142.67722 L 44.447643,143.79258 L 67.299985,117.87527 z" style="fill:#95a5a6;stroke:#ffffff" />
<path d="M 6.7924528,149.43396 L 16.198173,152.98746 L 9.9288346,160.16247 L 10.660506,191.96429 L 15.048242,196.35203 L 3.2278398,206.55068 L -0.22641516,211.92453 L 0.070780839,152.15707 L 6.7924528,149.43396 z" style="fill:#f1c40f;stroke:#ffffff" />
<path d="M -0.90566116,276.45283 L 1.8113208,275.32075 L 6.3396228,311.09434 L -1.6147186e-07,324.90566 L -0.90566116,276.45283 z" style="fill:#95a5a6;stroke:#ffffff" />
<path d="M 12.92123,89.469671 L 19.680261,75.690638 L 25.828031,76.42345 L 27.622642,82.18868 L 23.773582,84 L 27.013673,86.90883 L 23.250471,92.170513 L 12.92123,89.469671 z" style="fill:#e74c3c;stroke:#ffffff" />
<path d="M 20.202231,75.84906 L 25.916172,76.58073 L 25.358492,74.26415 L -0.22641516,52.07547 L -0.59225027,60.088131 L 8.6729111,63.240091 L 20.202231,75.84906 z" style="fill:#2ecc71;stroke:#ffffff" />
</svg>