<svg xmlns="http://www.w3.org/2000/svg" version="1.0" width="1080" height="600">
<rect width="1080" height="600" x="0" y="0" style="fill:#c5eff7;stroke-width:0" />
<path d="M 0,392.03816 L 5.2605922,387.02768 L 23.768421,385.03816 L 26.642302,374.17284 L 32.069648,368.42577 L 32.262639,364.38394 L 37.076316,356 L 39.939123,363.98871 L 46.730263,363.65395 L 42.279488,354.6801 L 50.063435,354.15759 L 56.114474,339.61579 L 73.038158,332.38421 L 82.038158,343.73026 L 93.692105,344.07632 L 94.100001,334.91158 L 102,323 L 119.39856,317.97986 L 118.88553,309.03816 L 129.54139,316.40678 L 136.00488,314.81875 L 142.22331,318.72281 L 152.30789,316.26974 L 155.74888,322.31228 L 147.13453,325.63561 L 147.50692,333.58342 L 141.73026,340.69211 L 150.51093,349.14664 L 158.57538,349.99767 L 169.65374,361.25648 L 185,368 L 196.29256,354.42355 L 198.36721,317.89173 L 203.73026,306.61579 L 215.63779,338.70109 L 221.84928,335.35413 L 226.89341,343.51522 L 235.88407,377.91074 L 255.88143,391.48902 L 264.23193,407.81858 L 272.39784,410.32591 L 272.56029,418.04001 L 292.80658,437.425 L 292.76109,455.77249 L 297.51645,462.59408 L 289.01141,504.50825 L 280.83419,510.45072 L 268.46164,537.44724 L 267.38421,557.96184 L 247.75628,563.63166 L 236.04877,574.59037 L 230.92442,568.68662 L 224.86977,567.47602 L 225.65809,562.43911 L 213.84474,572.07632 L 183.95814,561.12278 L 179.78562,545.13886 L 174.32351,538.56319 L 168.08418,538.60313 L 170.82778,532.59128 L 166.90338,525.88708 L 156.90818,533.99003 L 165.11292,517.41044 L 163.85408,509.54628 L 148.11447,528.65395 L 142.36756,526.07285 L 139.04244,518.37553 L 133.96027,511.04093 L 133.94225,505.84941 L 122.85474,499.98339 L 115.91987,499.65423 L 107.2993,495.23712 L 66.483009,502.65142 L 49.121951,509.18259 L 41,519 L 16.245393,519.62665 L 0.38421053,527.69211 L 0,392.03816 z" style="fill:#e74c3c;stroke:#ffffff;stroke-width:1px" />
<path d="M 191.57441,290.49616 L 210.13345,289.46203 L 210.18471,282.07631 L 220.10662,278.20553 L 233.92532,280.54756 L 250.09874,298.98622 L 264.60884,300.04412 L 274.56701,304.80565 L 255.88502,291.21589 L 240.92077,275.65483 L 240.91353,268.68435 L 247.22534,267.31122 L 231.45925,260.61859 L 230.99074,255.23192 L 220.82355,246.80581 L 191.30503,236.57453 L 191.57441,290.49616 z" style="fill:#95a5a6;stroke:#ffffff;stroke-width:1px" />
<path d="M 189.18748,288.01667 L 182.53653,281.78107 L 173.9948,280.64753 L 172.83079,283.56711 L 164.50591,284.16808 L 165.53599,278.59811 L 172.30418,276.06709 L 164.88448,258.25618 L 127.47094,242.12355 L 123.47716,247.22775 L 121.73812,241.27946 L 116.44251,237.35384 L 129.59145,235.8019 L 129.71707,232.50828 L 116.06394,231.54305 L 111.92424,225.083 L 105.92008,224.72442 L 103.64116,220.57751 L 112.01314,220.49581 L 117.12967,217.36616 L 129.93487,219.54156 L 134.13349,237.36031 L 143.78638,242.59676 L 149.02178,233.91769 L 158.43649,229.70077 L 167.50858,228.76027 L 189.49668,235.65028 L 189.18748,288.01667 z" style="fill:#e67e22;stroke:#ffffff;stroke-width:1px" />
<path d="M 70.71694,285.67943 L 60.173344,285.26803 L 55.014696,286.59022 L 55.021059,293.72625 L 70.71694,285.67943 z" style="fill:#e26a6a;stroke:#ffffff;stroke-width:1px" />
<path d="M 44.067037,300.19724 L 44.644789,293.66862 L 54.420528,290.25431 L 54.360836,294.43602 L 50.756883,299.15671 L 44.067037,300.19724 z" style="fill:#e67e22;stroke:#ffffff;stroke-width:1px" />
<path d="M 36.642856,282.77878 L 23.452953,286.52693 L 12.567569,283.88429 L 10.807892,288.16358 L 22.044624,289.43096 L 29.114077,287.49406 L 36.642856,282.77878 z" style="fill:#e67e22;stroke:#ffffff;stroke-width:1px" />
<path d="M 19.332339,301.0213 L 9.1589337,292.89425 L 4.8709802,297.08213 L 19.332339,301.0213 z" style="fill:#e67e22;stroke:#ffffff;stroke-width:1px" />
<path d="M 134.75572,259.99279 L 131.61334,268.08315 L 136.12915,269.95776 L 134.75572,259.99279 z" style="fill:#e67e22;stroke:#ffffff;stroke-width:1px" />
<path d="M 103.04033,245.36186 L 99.583195,240.02062 L 93.457592,237.38242 L 80.664604,236.67231 L 80.239204,242.23517 L 91.293607,241.01991 L 103.04033,245.36186 z" style="fill:#e67e22;stroke:#ffffff;stroke-width:1px" />
<path d="M 63.759048,240.02485 L 71.337115,240.67775 L 73.910653,245.50111 L 65.789593,244.93526 L 63.759048,240.02485 z" style="fill:#e67e22;stroke:#ffffff;stroke-width:1px" />
<path d="M 54.3474,200.22421 L 45.135976,204.82992 L 20.265132,202.98764 L 11.053708,210.35678 L 2.7634271,238.91219 L 8.2902813,243.5179 L 9.2114237,257.33504 L 13.817136,257.33504 L 13.817136,237.99105 L 19.34399,236.14876 L 21.186275,245.36019 L 25.791986,248.12361 L 25.791986,255.49275 L 33.161125,250.88704 L 31.318841,258.25618 L 37.766837,259.17732 L 38.68798,253.65047 L 30.397698,244.43905 L 32.239983,238.91219 L 23.028559,228.77962 L 35.924552,221.41049 L 23.949702,219.5682 L 19.34399,225.09506 L 11.974851,217.72592 L 14.738278,211.27792 L 48.820546,210.35678 L 54.3474,200.22421 z" style="fill:#e67e22;stroke:#ffffff;stroke-width:1px" />
<path d="M 61.716539,149.56138 L 55.268542,156.93052 L 59.874254,161.53623 L 55.268542,164.29966 L 46.057118,156.00938 L 48.820546,149.56138 L 43.293691,144.95567 L 39.609122,148.64024 L 35.00341,147.7191 L 30.397698,153.24595 L 31.318841,144.03453 L 40.530264,137.58653 L 44.214834,141.2711 L 51.583973,137.58653 L 57.110827,135.74425 L 58.953112,130.21739 L 66.322251,136.66539 L 67.243393,154.16709 L 61.716539,149.56138 z" style="fill:#2ecc71;stroke:#ffffff;stroke-width:1px" />
<path d="M 37.766837,132.98082 L 46.057118,121.00597 L 43.293691,119.16368 L 41.451407,123.76939 L 38.68798,118.24254 L 35.924552,122.84825 L 34.082268,127.45396 L 32.239983,129.29625 L 37.766837,132.98082 z" style="fill:#2ecc71;stroke:#ffffff;stroke-width:1px" />
<path d="M 54.3474,125.61168 L 57.110827,121.00597 L 54.3474,116.40026 L 59.874254,116.40026 L 59.874254,110.8734 L 55.268542,105.34655 L 49.741688,105.34655 L 53.426257,112.71569 L 53.426257,115.47911 L 47.899403,116.40026 L 52.505115,121.00597 L 54.3474,125.61168 z" style="fill:#2ecc71;stroke:#ffffff;stroke-width:1px" />
<path d="M 27.634271,111.79454 L 37.766837,115.47911 L 34.082268,121.00597 L 28.555413,121.00597 L 27.634271,111.79454 z" style="fill:#2ecc71;stroke:#ffffff;stroke-width:1px" />
<path d="M 45.135976,102.58312 L 44.214834,94.292839 L 33.161125,89.687127 L 27.634271,89.687127 L 23.949702,85.081415 L 24.870844,75.869991 L 30.397698,68.500853 L 32.239983,58.368286 L 31.318841,53.762575 L 25.791986,54.683717 L 19.34399,51.92029 L 15.65942,61.131714 L 13.817136,73.106564 L 10.132566,79.554561 L 13.817136,86.002558 L 19.34399,85.081415 L 18.422847,94.292839 L 23.949702,94.292839 L 32.239983,94.292839 L 37.766837,97.056266 L 45.135976,102.58312 z" style="fill:#2ecc71;stroke:#ffffff;stroke-width:1px" />
<path d="M 26.713129,0.33631714 L 22.107417,7.7054561 L 19.34399,19.680307 L 11.974851,5.8631714 L 16.580563,-1.5059676 L 26.713129,0.33631714 z" style="fill:#e74c3c;stroke:#ffffff;stroke-width:1px" />
<path d="M 478.99403,600 L 484.52089,589.86743 L 469.78261,577.89258 L 478.07289,573.28687 L 478.99403,558.54859 L 461.49233,528.1509 L 474.38832,535.52003 L 482.6786,554.86402 L 485.44203,548.41603 L 489.1266,560.39088 L 498.33802,564.99659 L 505.70716,562.23316 L 510.31287,561.31202 L 504.78602,576.0503 L 499.25916,576.0503 L 496.49574,586.18286 L 489.1266,600 L 478.99403,600 z" style="fill:#2ecc71;stroke:#ffffff;stroke-width:1px" />
<path d="M 386.09409,386.28792 L 415.29977,406.68988 L 407.99413,408.95394 L 386.09409,386.28792 z" style="fill:#4183d7;stroke:#ffffff;stroke-width:1px" />
<path d="M 252.56032,261.22314 L 264.79554,260.75306 L 268.36866,257.16255 L 271.17285,261.81101 L 279.6874,256.50436 L 282.41938,251.54226 L 289.38272,251.32564 L 284.84533,259.23518 L 277.15841,262.9128 L 269.42713,267.56127 L 264.15163,264.23087 L 252.56032,261.22314 z" style="fill:#95a5a6;stroke:#ffffff;stroke-width:1px" />
<path d="M 273.55171,236.89628 L 278.92396,239.10584 L 289.40852,250.76016 L 293.04779,253.18634 L 295.86389,248.20401 L 283.0398,235.42324 L 273.55171,236.89628 z" style="fill:#95a5a6;stroke:#ffffff;stroke-width:1px" />
<path d="M 306.70166,257.8339 L 320.23847,268.60116 L 313.53095,272.39952 L 306.70166,257.8339 z" style="fill:#95a5a6;stroke:#ffffff;stroke-width:1px" />
<path d="M 349.33591,292.81624 L 355.83436,292.6406 L 360.40085,297.03145 L 356.01,299.66596 L 349.33591,292.81624 z" style="fill:#e67e22;stroke:#ffffff;stroke-width:1px" />
<path d="M 358.29324,284.56144 L 364.79169,289.65483 L 367.25057,295.80202 L 364.08916,295.97765 L 358.29324,284.56144 z" style="fill:#e67e22;stroke:#ffffff;stroke-width:1px" />
<path d="M 365.49423,300.71977 L 373.39776,304.75935 L 367.95311,306.86695 L 365.49423,300.71977 z" style="fill:#e67e22;stroke:#ffffff;stroke-width:1px" />
<path d="M 409.92962,338.83233 L 415.19864,343.57445 L 415.023,350.0729 L 409.05145,346.20896 L 409.92962,338.83233 z" style="fill:#e67e22;stroke:#ffffff;stroke-width:1px" />
<path d="M 512.1676,357.57731 L 521.10942,352.60964 L 524.33841,353.60317 L 523.59326,358.07408 L 519.12235,358.07408 L 513.90629,359.56438 L 512.1676,357.57731 z" style="fill:#f1c40f;stroke:#ffffff;stroke-width:1px" />
<path d="M 503.72255,363.78691 L 507.44831,364.78045 L 510.42892,363.78691 L 512.66437,368.5062 L 510.18053,370.49328 L 502.23225,370.24489 L 501.73548,366.51913 L 503.72255,363.78691 z" style="fill:#f1c40f;stroke:#ffffff;stroke-width:1px" />
<rect width="97.127617" height="23.480131" x="182.40053" y="95.97374" style="fill:none;stroke:#000000;stroke-width:1" />
<rect width="63.228218" height="73.063721" x="88.519508" y="119.46554" style="fill:none;stroke:#000000;stroke-width:1" />
<rect width="45.137913" height="42.152142" x="383.40891" y="206.57997" style="fill:none;stroke:#000000;stroke-width:1" />
<rect width="51.987648" height="26.69636" x="510.04095" y="310.55527" style="fill:none;stroke:#000000;stroke-width:1" />
<rect width="81.494148" height="16.860859" x="559.21844" y="279.64371" style="fill:none;stroke:#000000;stroke-width:1" />
<rect width="95.455284" height="137.59465" x="640.53699" y="279.64371" style="fill:none;stroke:#000000;stroke-width:1" />
<path d="M 150.34265,119.46554 L 345.99886,120.16807 L 345.64759,75.908322 L 514.25618,77.313394 L 514.25618,177.07347 L 539.54746,212.20026 L 644.92783,210.79519 L 644.92783,231.87126 L 698.32055,231.87126 L 698.49618,185.67953 L 675.8394,185.5039 L 675.8394,161.61769 L 750.30819,161.61769 L 800.89077,269.80819 L 942.80299,268.40312 L 942.80299,442.63199 L 899.4214,467.57201 L 803.70091,467.92328 L 735.99227,417.23832 L 735.99226,313.20257 L 801.06641,313.36541 L 800.89077,269.45692" style="fill:none;stroke:#000000;stroke-width:1px" />
<path d="M 345.99886,120.16807 L 345.99886,138.434 L 428.54681,177.42474 L 514.43181,177.07347" style="fill:none;stroke:#000000;stroke-width:1px" />
<path d="M 428.54681,207.98505 L 428.72245,176.89783" style="fill:none;stroke:#000000;stroke-width:1px" />
<path d="M 151.74772,192.35363 L 151.74772,205.89659 L 383.58453,206.57997 L 383.4089,254.35241 L 333.70448,254.00113 L 312.45278,281.22439 L 312.62842,316.17555 L 226.91905,316.35119 L 216.38101,296.50455 L 190.3872,292.46497 L 190.31329,205.76703" style="fill:none;stroke:#000000;stroke-width:1px" />
<path d="M 312.62842,316.35119 L 333.00195,316.17555 L 333.00195,418.74577 L 606.9909,417.3407 L 606.63963,355.51755 L 640.36135,355.16629" style="fill:none;stroke:#000000;stroke-width:1px" />
<path d="M 606.9909,355.51756 L 598.56047,355.51756 L 598.56047,309.1502 L 589.60314,296.50455" style="fill:none;stroke:#000000;stroke-width:1px" />
<path d="M 598.2092,337.25162 L 562.02861,337.25162 L 562.02861,296.50455" style="fill:none;stroke:#000000;stroke-width:1px" />
<path d="M 476.49488,417.8676 L 476.31925,354.11248 L 456.64824,320.39077 L 481.97849,310.26793 L 510.04096,310.51631" style="fill:none;stroke:#000000;stroke-width:1px" />
<path d="M 476.49488,387.8342 L 438.38231,387.8342 L 391.83932,356.04446 L 333.17758,355.86883" style="fill:none;stroke:#000000;stroke-width:1px" />
<path d="M 333.00195,320.39077 L 456.82387,320.39077" style="fill:none;stroke:#000000;stroke-width:1px" />
<path d="M 481.81534,310.26793 L 428.37118,248.73212 L 538.14239,248.73212 L 538.14239,279.29242 L 560.62354,279.64369" style="fill:none;stroke:#000000;stroke-width:1px" />
<path d="M 550.38738,337.34472 L 550.38739,417.46028" style="fill:none;stroke:#000000;stroke-width:1px" />
<path d="M 606.89165,417.29745 L 640.59881,417.29744" style="fill:none;stroke:#000000" />
</svg>